
<svg width="51" height="81" viewBox="0 0 51 81" fill="none" xmlns="http://www.w3.org/2000/svg">
<path d="M48.7479 60.0019C47.1649 50.6401 33.3843 44.7581 30.1671 42.5837C29.6666 42.2454 29.2199 41.8143 28.8345 41.3275C27.0998 39.8134 27.364 38.0985 27.364 38.0985C27.1626 37.0077 27.2518 35.9583 27.7001 35.1911C27.7001 35.1911 35.8891 21.6759 35.7048 16.6074C35.5207 11.5389 33.5707 -1.41157 16.6268 2.39995C-0.317084 6.21143 1.26325 16.844 1.1997 18.608C1.13615 20.372 1.16876 28.384 20.0139 38.3085C20.0139 38.3085 20.661 38.7131 21.3218 39.4251C21.3218 39.4251 22.7595 40.4692 22.7095 42.3486C22.7482 43.037 22.5957 43.7928 22.1402 44.5997C20.0662 48.2737 12.6613 59.1889 13.8429 67.1147C15.0244 75.0405 23.6681 80.6476 34.2015 77.5122C44.735 74.3768 50.1637 68.3753 48.7479 60.0019ZM13.8733 5.51422C19.7429 3.02972 24.9887 3.70621 28.6716 7.07844C16.7686 4.29948 7.12936 12.0739 3.59411 15.4768C4.76336 11.526 8.28743 7.87858 13.8733 5.51422ZM21.3466 74.1076C21.1808 74.0022 13.9725 69.3743 15.6639 62.6778C16.8935 57.8098 20.473 48.3244 25.6385 45.3522L31.3971 68.3261L21.3466 74.1076ZM44.7494 68.7572L32.4382 68.3518L27.589 44.5802C29.0857 44.2488 30.691 44.4888 32.3907 45.5253C41.1251 50.8514 50.5235 56.3879 44.7494 68.7572Z" fill="#DD1515"/>
</svg>
